PathFileType	4	(X/Y/Z)	SUBJ89_1_walk_RCNL2025.trc
DataRate	CameraRate	NumFrames	NumMarkers	Units	OrigDataRate	OrigDataStartFrame	OrigNumFrames
100	100	11	25	mm	100	213	243
Frame#	Time	R_Shoulder			L_Shoulder			C7			J_Notch			R_Elbow			L_Elbow			R_Wrist			L_Wrist			R_Asis			L_Asis			Sacral			Thoracic			Sternum			R_Thigh_Lateral			R_Knee_Lateral			R_Shank_Lateral			R_Ankle_Lateral			R_Heel			R_Toe			L_Thigh_Lateral			L_Knee_Lateral			L_Shank_Lateral			L_Ankle_Lateral			L_Heel			L_Toe		
		X1	Y1	Z1	X2	Y2	Z2	X3	Y3	Z3	X4	Y4	Z4	X5	Y5	Z5	X6	Y6	Z6	X7	Y7	Z7	X8	Y8	Z8	X9	Y9	Z9	X10	Y10	Z10	X11	Y11	Z11	X12	Y12	Z12	X13	Y13	Z13	X14	Y14	Z14	X15	Y15	Z15	X16	Y16	Z16	X17	Y17	Z17	X18	Y18	Z18	X19	Y19	Z19	X20	Y20	Z20	X21	Y21	Z21	X22	Y22	Z22	X23	Y23	Z23	X24	Y24	Z24	X25	Y25	Z25
213	2.12000000	1069.583008	1429.228760	384.605042	1054.541260	1423.093384	-28.471756	994.278198	1517.247070	173.531143	1112.751343	1390.443237	182.412643	973.474976	1106.119141	440.991730	974.166260	1088.864990	-55.275612	1077.465393	854.905121	434.208145	1033.938873	829.102356	-78.887615	1082.179321	994.045837	317.427612	1092.082275	1000.775574	78.376518	920.878296	1059.583740	204.201263	908.409119	1345.187622	186.441391	1139.677856	1240.799438	178.804245	1080.990845	611.254700	381.601654	1093.741211	500.656433	329.318115	935.094055	349.415009	362.925812	788.996399	204.651703	283.918915	761.070740	220.371796	234.196167	874.716431	77.293510	278.128448	1079.253174	573.944458	-3.154900	1079.056641	491.864746	73.359215	1031.720093	261.799713	31.607821	1012.933472	66.430283	106.240005	973.399963	73.836479	152.745834	1169.255859	37.071030	120.184624
214	2.13000000	1082.386353	1430.314941	384.605743	1068.242798	1425.120972	-28.510717	1007.711853	1518.515503	173.414749	1126.053955	1391.801758	182.312439	984.011841	1107.977905	441.027649	991.593018	1090.116089	-56.832958	1084.765930	855.540985	434.796677	1057.797913	831.544586	-78.106674	1095.936523	995.999146	316.187439	1105.360718	1001.730408	77.175789	934.330933	1060.694336	203.304108	921.727661	1346.318970	185.811768	1152.868286	1242.149048	178.285461	1102.525024	614.287781	381.458984	1117.810913	503.924469	329.005127	964.804810	346.814484	362.921722	822.822632	197.902267	283.904480	793.760620	212.691025	234.385513	914.161865	74.780022	276.455017	1083.785767	573.801514	-3.961905	1082.164917	491.483826	72.895844	1032.885620	261.802155	31.405933	1013.155579	66.632050	106.367722	973.513000	74.182579	152.812683	1169.306152	37.039883	120.150024
215	2.14000000	1095.154541	1431.048218	384.645111	1081.886963	1426.856812	-28.482222	1021.060852	1519.458252	173.359467	1139.280029	1392.835693	182.253494	994.538391	1109.480225	441.091797	1009.196838	1091.121826	-58.510101	1092.227173	855.918823	435.481598	1081.866638	833.912048	-77.202312	1109.716064	997.596497	314.958191	1118.625610	1002.415710	75.982460	947.763916	1061.443604	202.453217	934.977661	1347.119385	185.232376	1165.997803	1243.177612	177.780777	1123.886597	617.170654	381.324127	1141.400024	506.947662	328.653076	994.576477	343.705139	362.918549	857.356079	190.291473	284.031372	827.199646	203.980530	234.680115	954.398560	71.872063	275.124969	1088.389771	573.626526	-4.722541	1085.415405	491.078796	72.469620	1034.226318	261.786377	31.216335	1013.403564	66.847382	106.513557	973.635010	74.554939	152.910156	1169.369751	37.021931	120.121307
216	2.15000000	1107.902710	1431.412109	384.719391	1095.482910	1428.269287	-28.386408	1034.333862	1520.064453	173.365967	1152.437622	1393.527710	182.234390	1005.064636	1110.604492	441.163818	1026.973633	1091.859131	-60.298962	1099.879395	856.016632	436.271088	1106.102783	836.188995	-76.170101	1123.523926	998.810730	313.750732	1131.881104	1002.806152	74.804771	961.186462	1061.834961	201.649689	948.163879	1347.587524	184.711639	1179.074585	1243.867920	177.298935	1145.007568	619.863281	381.178223	1164.470093	509.690399	328.270935	1024.300781	340.216034	362.895874	892.595764	181.946793	284.271820	861.441162	194.348938	235.054657	995.348083	68.692474	274.206451	1093.184326	573.407654	-5.418715	1088.890137	490.639618	72.079910	1035.763428	261.746796	31.040915	1013.661194	67.066162	106.673515	973.786133	74.958862	153.040955	1169.444336	37.009441	120.098457
217	2.16000000	1120.643555	1431.394531	384.825623	1109.038208	1429.334351	-28.225397	1047.540771	1520.328369	173.436371	1165.535767	1393.864990	182.255905	1015.598389	1111.335083	441.226135	1044.917603	1092.308716	-62.184223	1107.747375	855.817383	437.167938	1130.461487	838.357025	-74.999577	1137.357788	999.620544	312.576050	1145.131226	1002.879517	73.653320	974.601746	1061.880737	200.899292	961.290039	1347.728271	184.257858	1192.109131	1244.208008	176.850067	1165.826050	622.321777	381.001556	1186.975830	512.117554	327.864441	1053.879150	336.446014	362.849976	928.534729	173.002701	284.598145	896.528687	183.923538	235.485367	1036.935303	65.367271	273.743073	1098.307373	573.127808	-6.032600	1092.662109	490.150360	71.730484	1037.494019	261.677277	30.885660	1013.924255	67.282974	106.846001	973.986389	75.392815	153.206299	1169.527588	36.992378	120.083321
218	2.17000000	1133.387085	1430.990356	384.962952	1122.556885	1430.037231	-28.003489	1060.692993	1520.250366	173.572388	1178.583984	1393.841064	182.320694	1026.147705	1111.663086	441.264404	1063.026123	1092.460693	-64.147896	1115.851257	855.309753	438.167953	1154.896301	840.400116	-73.677685	1151.207031	1000.012817	311.447754	1158.380493	1002.620056	72.541512	988.009583	1061.597534	200.208817	974.364319	1347.549316	183.875412	1205.112793	1244.192383	176.444397	1186.279907	624.502136	380.775879	1208.866577	514.193542	327.437836	1083.233032	332.459137	362.787994	965.161743	163.599457	284.986633	932.488831	172.851562	235.950272	1079.090820	62.026695	273.752747	1103.898193	572.764221	-6.548264	1096.791870	489.593048	71.427895	1039.409912	261.572296	30.758558	1014.198303	67.498520	107.032219	974.256836	75.848511	153.405792	1169.618286	36.962654	120.078644
219	2.18000000	1146.139404	1430.202148	385.133331	1136.038330	1430.371582	-27.726208	1073.803223	1519.837158	173.773911	1191.593628	1393.456909	182.431793	1036.724121	1111.586792	441.267975	1081.298340	1092.315430	-66.169495	1124.206848	854.487488	439.259079	1179.364929	842.312195	-72.196558	1165.055420	999.984253	310.382385	1171.634399	1002.022400	71.485191	1001.409485	1061.004272	199.582962	987.401306	1347.058838	183.566010	1218.097656	1243.822754	176.091400	1206.300903	626.360291	380.487274	1230.087646	515.882080	326.996246	1112.312744	328.289917	362.723572	1002.464966	153.883789	285.423187	969.328674	161.302261	236.433243	1121.750977	58.804802	274.225372	1110.069702	572.287842	-6.951867	1101.326050	488.953033	71.179428	1041.511353	261.426788	30.669430	1014.494080	67.719566	107.238525	974.618958	76.318253	153.641068	1169.717285	36.917984	120.086754
220	2.19000000	1158.903076	1429.040649	385.340759	1149.477783	1430.337891	-27.399317	1086.885986	1519.101685	174.038467	1204.578125	1392.722900	182.591003	1047.347412	1111.112671	441.233459	1099.731445	1091.881714	-68.224976	1132.825500	853.348907	440.421280	1203.835999	844.101196	-70.560186	1178.886108	999.542480	309.397034	1184.900024	1001.093018	70.500381	1014.804260	1060.121826	199.021408	1000.419373	1346.265869	183.330963	1231.077515	1243.109253	175.798798	1225.814209	627.850830	380.128174	1250.585205	517.146790	326.545685	1141.101440	323.954407	362.674164	1040.434814	144.011475	285.907440	1007.035034	149.466583	236.928329	1164.855957	55.837791	275.121582	1116.883179	571.666443	-7.233224	1106.291748	488.222717	70.991768	1043.808350	261.237183	30.631344	1014.824219	67.957298	107.479454	975.086853	76.802757	153.924850	1169.827759	36.861027	120.108810
221	2.20000000	1171.677002	1427.524414	385.590576	1162.871460	1429.942871	-27.028633	1099.957520	1518.062012	174.361313	1217.553833	1391.656860	182.798828	1058.046143	1110.255005	441.165985	1118.317993	1091.175415	-70.287888	1141.713440	851.895294	441.627808	1228.290100	845.786743	-68.786093	1192.687134	998.704041	308.506927	1198.187866	999.849792	69.600212	1028.202759	1058.970947	198.518936	1013.437561	1345.182251	183.171143	1244.068726	1242.068970	175.572098	1244.741333	628.928406	379.699951	1270.311890	517.952820	326.091766	1169.613403	319.465424	362.659149	1079.063477	134.150131	286.452362	1045.578003	137.554184	237.444809	1208.348022	53.262165	276.374664	1124.338745	570.873657	-7.389279	1111.693481	487.402832	70.869728	1046.312866	261.003815	30.662075	1015.200317	68.224098	107.780655	975.657410	77.312149	154.289154	1169.953247	36.797352	120.144516
222	2.21000000	1184.457520	1425.679688	385.887817	1176.219604	1429.199219	-26.620358	1113.034546	1516.739136	174.736801	1230.538818	1390.283203	183.055603	1068.854858	1109.033447	441.075134	1137.043945	1090.216553	-72.330055	1150.871582	850.129608	442.847153	1252.714905	847.393829	-66.901932	1206.455322	997.490356	307.724487	1211.509644	998.319763	68.793083	1041.619263	1057.571899	198.069366	1026.474854	1343.823608	183.086899	1257.089966	1240.725586	175.414764	1263.004150	629.550415	379.215546	1289.233765	518.272034	325.639282	1197.887451	314.849274	362.699219	1118.340942	124.481606	287.080292	1084.916382	125.790634	238.009659	1252.166748	51.213924	277.895081	1132.379639	569.897644	-7.426307	1117.510132	486.502106	70.815025	1049.026001	260.734589	30.784721	1015.629395	68.531174	108.180771	976.312744	77.862640	154.783478	1170.098633	36.736443	120.192413
223	2.22000000	1197.238892	1423.539551	386.236511	1189.529419	1428.126343	-26.180962	1126.132446	1515.155396	175.160278	1243.550415	1388.632080	183.362320	1079.809204	1107.470825	440.969116	1155.887451	1089.028564	-74.320786	1160.295471	848.056366	444.046219	1277.097168	848.946747	-64.939165	1220.198608	995.924194	307.057892	1224.876709	996.536072	68.082230	1055.072144	1055.946411	197.668961	1039.549683	1342.210083	183.078506	1270.162720	1239.108154	175.328568	1280.526123	629.679321	378.700317	1307.333252	518.089539	325.193604	1225.974854	310.158081	362.816681	1158.246216	115.203430	287.817261	1124.995972	114.414246	238.662537	1296.241577	49.829170	279.576294	1140.899414	568.744202	-7.359132	1123.695312	485.535614	70.825798	1051.927002	260.447754	31.026684	1016.109985	68.888702	108.729179	977.034851	78.475189	155.463699	1170.267212	36.689556	120.252441
